<?xml version="1.0" encoding="UTF-8"?> <svg xmlns="http://www.w3.org/2000/svg" xmlns:xlink="http://www.w3.org/1999/xlink" id="Layer_2" viewBox="0 0 250 250"><defs><style>.cls-1{fill:url(#linear-gradient);}.cls-2{fill:#fff;}.cls-3{fill:#d8ebf6;}</style><linearGradient id="linear-gradient" x1="125" y1="1012.67" x2="125" y2="762.67" gradientTransform="translate(0 1012.67) scale(1 -1)" gradientUnits="userSpaceOnUse"><stop offset="0" stop-color="#68b0db"></stop><stop offset="1" stop-color="#468cc3"></stop></linearGradient></defs><g id="Layer_1-2"><g id="Icons"><g id="Snagit"><g id="Snagit_Icon_256px"><rect class="cls-1" width="250" height="250" rx="24.41" ry="24.41"></rect><rect class="cls-3" x="45.41" y="68.36" width="38.09" height="37.6"></rect><rect class="cls-3" x="166.5" y="144.04" width="38.09" height="37.6"></rect><path class="cls-2" d="M76.03,182.82l-29.5,30.27c-1.5,1.55-1.47,4.02,.07,5.52,.73,.71,1.7,1.1,2.71,1.11h116.54c1.05,0,2.06-.43,2.8-1.18l35.96-36.9H78.82c-1.05,0-2.06,.43-2.8,1.18Z"></path><path class="cls-2" d="M174,67.18l29.5-30.27c1.5-1.55,1.47-4.02-.07-5.52-.73-.71-1.72-1.11-2.74-1.11H84.17c-1.05,0-2.06,.43-2.8,1.18l-35.96,36.9h125.8c1.05,0,2.06-.43,2.8-1.18Z"></path><path class="cls-2" d="M168.64,107.14c-.74-.76-1.74-1.18-2.8-1.18H45.41l35.96,36.9c.74,.76,1.74,1.18,2.8,1.18h120.42l-35.95-36.9Z"></path></g></g></g></g></svg> 